<?xml version="1.0"?>
<svg xmlns:rdf="http://www.w3.org/1999/02/22-rdf-syntax-ns#" xmlns="http://www.w3.org/2000/svg" xmlns:cc="http://creativecommons.org/ns#" xmlns:xlink="http://www.w3.org/1999/xlink" xmlns:dc="http://purl.org/dc/elements/1.1/" xmlns:svg="http://www.w3.org/2000/svg" id="svg5319" viewBox="0 0 640 480" version="1.1">
  <defs id="defs5321">
    <radialGradient id="radialGradient6065" xlink:href="#linearGradient6057" gradientUnits="userSpaceOnUse" cy="23.63" cx="24.017" gradientTransform="matrix(.94232 .0065397 -.0069462 1.0009 1.5494 -.17840)" r="1.3395"/>
    <linearGradient id="linearGradient6057">
      <stop id="stop6059" stop-color="#dce28c" offset="0"/>
      <stop id="stop6061" stop-color="#eca35d" offset="1"/>
    </linearGradient>
    <filter id="filter6211" height="1.4229" width="1.423" y="-.21143" x="-.21148" color-interpolation-filters="sRGB">
      <feGaussianBlur id="feGaussianBlur6213" stdDeviation="0.30947258"/>
    </filter>
    <radialGradient id="radialGradient6281" cx="24.027" gradientUnits="userSpaceOnUse" cy="23.66" r="9.8614" gradientTransform="matrix(1 0 0 .99068 0 .22058)">
      <stop id="stop6049" stop-color="#c07090" offset="0"/>
      <stop id="stop6051" stop-color="#4130df" offset="1"/>
    </radialGradient>
    <radialGradient id="radialGradient6287" cx="24.017" xlink:href="#linearGradient6057" gradientUnits="userSpaceOnUse" cy="23.63" r="1.3395" gradientTransform="matrix(1.2354 .0085736 -.0091066 1.3122 -5.4006 -7.5705)"/>
  </defs>
  <g id="layer1">
    <g id="g6215" transform="matrix(20.943 0 0 20.943 -185.14 -272.12)">
      <path id="path5253" fill="url(#radialGradient6065)" d="m25.357 23.63c0.000111 0.47862-0.25516 0.92093-0.66964 1.1603-0.41448 0.23934-0.92516 0.23934-1.3396 0-0.41448-0.23934-0.66975-0.68165-0.66964-1.1603-0.000111-0.47862 0.25516-0.92093 0.66964-1.1603 0.41448-0.23934 0.92516-0.23934 1.3396 0 0.41448 0.23934 0.66975 0.68165 0.66964 1.1603"/>
      <g id="g2030" fill="url(#radialGradient6281)">
        <path id="path5990" d="m25.977 23.732c0.71182-0.34268 3.8041-0.12403 3.8041-0.12403s-3.1079 0.77701-3.7722 0.42701c-0.4085-0.21523-0.43733-0.1078-0.03191-0.30298h0.000001m-0.51108 1.2125c0.78258 0.10815 3.2473 2.0076 3.2473 2.0076s-2.9183-1.2342-3.2351-1.915c-0.19478-0.41864-0.45793-0.15419-0.0122-0.09259m-0.89429 0.569c0.55283 0.56436 1.3398 3.5535 1.3398 3.5535s-1.737-2.6799-1.6191-3.4214c0.07245-0.45601-0.0355-0.45345 0.27938-0.132m-1.3181-0.05966c0.14923 0.77579-0.85561 3.7167-0.85561 3.7167s0.23121-3.1472 0.77502-3.6649c0.3344-0.31838-0.0044-0.49368 0.08059-0.05181m-0.987-0.839c-0.30926 0.72697-2.7919 2.6116-2.7919 2.6116s1.9667-2.5046 2.7066-2.6328c0.45495-0.07885 0.2615-0.39284 0.08535 0.02122m-0.2645-1.045c-0.68752 0.38914-3.7904 0.37605-3.7904 0.37605s3.0552-0.98019 3.7411-0.67478c0.42181 0.18781 0.44091 0.07709 0.04932 0.29873m0.4488-1.2314c-0.78795-0.05719-3.3723-1.7941-3.3723-1.7941s2.9981 1.0452 3.3586 1.7039c0.22171 0.40502 0.46249 0.1228 0.01371 0.09023v-0.000001m0.86943-0.60924c-0.5885-0.52706-1.5706-3.4627-1.5706-3.4627s1.9097 2.5675 1.8404 3.3151c-0.04265 0.45976 0.06542 0.44773-0.26977 0.14754m1.3204-0.006c-0.19982-0.76433 0.6105-3.7672 0.6105-3.7672s-0.0246 3.1632-0.53287 3.7159c-0.31255 0.33986 0.03619 0.48665-0.07762 0.05131v-0.000001m0.87725 0.59831c0.30926-0.72697 2.7663-2.5982 2.7663-2.5982s-1.8056 2.6302-2.5356 2.806c-0.4489 0.10809-0.40687 0.20629-0.23073-0.20777v-0.000001m0.46021 1.2275c0.66035-0.43366 3.7601-0.62554 3.7601-0.62554s-2.9892 1.1809-3.6939 0.92162c-0.43334-0.15942-0.44228-0.04908-0.06617-0.29608"/>
        <path id="path5992" d="m26.153 24.134c1.0342 0.1071 3.3237 1.9101 3.3237 1.9101s-3.7146-1.3891-3.8507-1.9968c-0.08364-0.37366-0.06212 0.02567 0.52695 0.08667m-0.61178 1.0784c0.75826 0.71147 1.5237 3.5509 1.5237 3.5509s-2.3199-3.2022-2.0971-3.7837c0.13696-0.35758 0.14152-0.17241 0.5734 0.23281m-1.2986 0.60512c0.23196 1.0136-0.73659 3.7725-0.73659 3.7725s-0.1239-3.9357 0.38504-4.2945c0.31296-0.22063 0.21944-0.05532 0.35155 0.52198m-1.4139-0.30969c-0.36874 0.97219-2.6873 2.704-2.6873 2.704s2.2996-3.2233 2.9217-3.1975c0.38258 0.01592-0.02443-0.06022-0.23445 0.4935v0.000001m-0.82861-0.9051c-0.88411 0.54726-3.817 0.52564-3.817 0.52564s3.6905-1.391 4.1946-1.0254c0.30995 0.22484 0.12601 0.18807-0.37755 0.49977m-0.19427-1.4198c-1.038-0.038-3.434-1.686-3.434-1.686s3.795 1.144 3.9703 1.7415c0.10776 0.36743 0.05645-0.03306-0.53535-0.05527h-0.000001m0.56047-1.1052c-0.80332-0.66017-1.7506-3.4395-1.7506-3.4395s2.5246 3.0402 2.3408 3.6351c-0.11307 0.36583-0.13257 0.18044-0.59011-0.19557v-0.000001m1.2629-0.66922c-0.29717-0.99641 0.49097-3.806 0.49097-3.806s0.14278 3.9644-0.36616 4.3232c-0.31296 0.22063 0.04445 0.05031-0.12481-0.51721m1.4335 0.23786c0.30345-0.99451 2.4979-2.8689 2.4979-2.8689s-2.0793 3.3664-2.7018 3.3819c-0.38279 0.0095 0.03102 0.05351 0.20385-0.51293h0.000001m0.86615 0.86241c0.84686-0.60331 3.7692-0.76925 3.7692-0.76925s-3.5886 1.626-4.1153 1.2938c-0.32387-0.20428-0.13629-0.18091 0.34604-0.52453m0.26705 1.4123c1.0394-0.02964 3.5312 1.4547 3.5312 1.4547s-3.8594-0.89319-4.0733-1.478c-0.13152-0.35961-0.04988 0.04017 0.5421 0.02329h0.000001"/>
        <path id="path5994" d="m27.694 24.095c1.52-0.04977 6.0671 1.3201 6.0671 1.3201s-6.0376-0.39814-6.6891-0.97879c-0.40065-0.35706-0.24367-0.31294 0.62206-0.34129m-1.0083 2.0952c1.2947 0.7979 4.1263 4.6391 4.1263 4.6391s-4.5556-3.9632-4.7226-4.8198c-0.10266-0.52675-0.14112-0.27375 0.59629 0.18071v0.000001m-2.0344 1.0948c0.62728 1.3854 0.8267 6.1446 0.8267 6.1446s-1.5652-5.8408-1.2255-6.6447c0.20887-0.49435 0.04157-0.28902 0.39885 0.50006v0.000001m-2.186-0.272c-0.34065 1.4822-3.0767 5.3976-3.0767 5.3976s2.298-5.5788 3.0566-6.0102c0.46651-0.26527 0.21417-0.23152 0.02015 0.61266m-1.7168-1.5515c-1.1087 1.041-5.5507 2.7695-5.5507 2.7695s5.0182-3.368 5.8888-3.3065c0.53533 0.03779 0.29337-0.05593-0.33809 0.537h-0.000001m-0.481-2.14c-1.5134 0.14994-6.1025-1.1935-6.1025-1.1935s6.0148 0.27647 6.7031 0.81311c0.42321 0.32999 0.26138 0.29497-0.60059 0.38037h-0.000001m0.88743-2.147c-1.3438-0.71202-4.4184-4.3587-4.4184-4.3587s4.8067 3.6583 5.0295 4.5021c0.13701 0.51888 0.15433 0.26205-0.61107-0.14349m1.8463-1.1735c-0.62727-1.3854-1.1005-6.1107-1.1005-6.1107s1.9418 5.7289 1.6549 6.5531c-0.17639 0.50685-0.19714 0.34668-0.55442-0.44241h-0.000001m2.3224 0.11594c0.24212-1.5014 2.7116-5.587 2.7116-5.587s-1.9239 5.7216-2.6522 6.2024c-0.44786 0.29568-0.19728 0.23975-0.05938-0.6154m1.7999 1.451c1.039-1.1105 5.3583-3.1215 5.3583-3.1215s-4.7917 3.6864-5.6645 3.6814c-0.53666-0.0031-0.28563 0.07261 0.30616-0.55992h0.000001m0.59888 2.1136c1.5001-0.24999 6.1654 0.7874 6.1654 0.7874s-6.02 0.12096-6.7421-0.3691c-0.44406-0.30135-0.27771-0.27591 0.5767-0.4183"/>
      </g>
      <path id="path6191" opacity=".56054" filter="url(#filter6211)" fill="url(#radialGradient6287)" d="m25.811 23.643c0.000145 0.62748-0.33452 1.2073-0.87791 1.5211-0.54338 0.31378-1.2129 0.31378-1.7563 0-0.54338-0.31378-0.87806-0.89365-0.87791-1.5211-0.000146-0.62748 0.33452-1.2073 0.87791-1.5211 0.54338-0.31378 1.2129-0.31378 1.7563 0 0.54338 0.31378 0.87805 0.89365 0.87791 1.5211"/>
    </g>
  </g>
  <metadata>
    <rdf:RDF>
      <cc:Work>
        <dc:format>image/svg+xml</dc:format>
        <dc:type rdf:resource="http://purl.org/dc/dcmitype/StillImage"/>
        <cc:license rdf:resource="http://creativecommons.org/licenses/publicdomain/"/>
        <dc:publisher>
          <cc:Agent rdf:about="http://openclipart.org/">
            <dc:title>Openclipart</dc:title>
          </cc:Agent>
        </dc:publisher>
        <dc:title>supernova</dc:title>
        <dc:date>2011-10-02T09:00:43</dc:date>
        <dc:description>clip art, clipart, star, sun, supernova, </dc:description>
        <dc:source>http://openclipart.org/detail/162475/supernova-by-ryan_s</dc:source>
        <dc:creator>
          <cc:Agent>
            <dc:title>ryan_s</dc:title>
          </cc:Agent>
        </dc:creator>
        <dc:subject>
          <rdf:Bag>
            <rdf:li>clip art</rdf:li>
            <rdf:li>clipart</rdf:li>
            <rdf:li>star</rdf:li>
            <rdf:li>sun</rdf:li>
            <rdf:li>supernova</rdf:li>
          </rdf:Bag>
        </dc:subject>
      </cc:Work>
      <cc:License rdf:about="http://creativecommons.org/licenses/publicdomain/">
        <cc:permits rdf:resource="http://creativecommons.org/ns#Reproduction"/>
        <cc:permits rdf:resource="http://creativecommons.org/ns#Distribution"/>
        <cc:permits rdf:resource="http://creativecommons.org/ns#DerivativeWorks"/>
      </cc:License>
    </rdf:RDF>
  </metadata>
</svg>
